<svg style="display:none;">
  <!-- Ícone Home -->
  <symbol id="icon-home" viewBox="0 0 24 24">
    <path d="M12 2L3 9h3v12h6V15h2v6h6V9h3z"/>
  </symbol>

  <!-- Ícone User -->
  <symbol id="icon-user" viewBox="0 0 24 24">
    <path d="M12 2C9.79 2 8 3.79 8 6s1.79 4 4 4 4-1.79 4-4-1.79-4-4-4zm0 10c-3.31 0-6 2.69-6 6v2h12v-2c0-3.31-2.69-6-6-6z"/>
  </symbol>

  <!-- Ícone Search -->
  <symbol id="icon-search" viewBox="0 0 24 24">
    <path d="M15.5 14h-.79l-.28-.27a6.5 6.5 0 1 0-1.42 1.42l.27.28v.79l5 4.99 1.5-1.49-5-5zM10 14a4 4 0 1 1 4-4 4 4 0 0 1-4 4z"/>
  </symbol>
</svg>
